<?xml version="1.0" encoding="utf-8"?>
<!-- Generator: Adobe Illustrator 16.0.0, SVG Export Plug-In . SVG Version: 6.00 Build 0)  -->
<!DOCTYPE svg PUBLIC "-//W3C//DTD SVG 1.1//EN" "http://www.w3.org/Graphics/SVG/1.1/DTD/svg11.dtd">
<svg version="1.1" xmlns="http://www.w3.org/2000/svg" xmlns:xlink="http://www.w3.org/1999/xlink" x="0px" y="0px" width="768px"
	 height="480px" viewBox="0 0 768 480" enable-background="new 0 0 768 480" xml:space="preserve">
<g id="chicken">
	<polyline fill="#7D7D7D" stroke="#7D7D7D" stroke-miterlimit="10" points="343.005,129.674 332.992,127.937 340.312,134.685 	"/>
	<polyline fill="#7D7D7D" stroke="#7D7D7D" stroke-miterlimit="10" points="340.417,135.339 330.4,141.116 338.979,141.338 	"/>
	<path fill="#FEBE2A" stroke="#FFFFFF" stroke-miterlimit="10" d="M361.139,105.992c-7.197,3.433-14.362,10.853-18.616,22.593
		c-1,2.758-1.838,5.754-2.479,8.992c-1.342,6.78-1.816,14.623-1.081,23.568c2.471,30.068,20.697,59.132,72.185,56.669
		c64.059-3.064,61.32-83.251,61.32-83.251s-8.167,8.712-19.704,12.315c-16.513,5.156-39.895,10.473-47.213,5.251
		c-7.229-5.159,0-26.434-10.916-38.749C384.921,102.42,368.879,102.3,361.139,105.992z"/>
	<path fill="#F79430" d="M396.148,152.129c0,0-8.5,3.074-25.652,2.5c-11.988-0.401-21.703-4.25-21.703-4.25
		c-0.062-13.144,0.979-39.583,23.712-39.583C394.107,110.796,395.562,138.119,396.148,152.129z"/>
	<ellipse fill="#F9F5F4" cx="363.122" cy="126.682" rx="5.365" ry="4.876"/>
	<path fill="#B63D26" stroke="#B63D26" stroke-miterlimit="10" d="M361.04,85.777c-3.036,0.605-0.886,12.352-0.886,12.352
		s2.653,5.571,4.456,5.685c2.195,0.139,6.253-6.185,6.253-6.185s4.173,6.546,6.361,6.185c2.355-0.388,4.348-8.501,4.348-8.501
		s0.231-9.092-2.174-9.536c-1.922-0.355-4.348,6.5-4.348,6.5s-3.51-5.555-5.435-5.465c-1.965,0.092-5.006,6.072-5.006,6.072
		S362.989,85.389,361.04,85.777z"/>
	<ellipse fill="#7D7D7D" stroke="#7D7D7D" stroke-miterlimit="10" cx="360.444" cy="126.681" rx="2.709" ry="2.463"/>
	<path fill="#91CC84" d="M325.241,135.252c0,0,2.601-4.485,0-4.868s-2.972-2.589-4.458,0s3.901,4.359,0,4.868
		c-3.9,0.508-4.086-1.164-3.9,0.508c0.186,1.671,4.081,5.201,4.733,4.458c0.653-0.743,2.882-2.212,2.882,0.102
		s1.899-2.145,1.899-2.145l2.002-0.959v-4.394"/>
	<path fill="#F79430" d="M460.898,156.796c0,0-6.596,47.582-55.766,47.678c-51.948,0.102-54.927-49.773-54.927-49.773
		C383.251,166.701,428.883,171.032,460.898,156.796z"/>
	<polygon fill="#412612" points="381.15,215.009 372.687,232.546 365.823,233.182 371.687,235.296 365.002,239.428 372.687,236.796 
		371.678,240.497 376.687,234.046 	"/>
	<polygon fill="#412612" points="399.18,217.284 401.371,234.255 395.917,238.472 402.001,237.113 398.573,244.186 403.649,237.842 
		404.781,241.508 405.552,233.376 	"/>
</g>
<g id="dotpath">
	<path fill="none" stroke="#4D4A4B" stroke-miterlimit="10" stroke-dasharray="2" d="M5.523,244.996c0,0,43.05,10.001,104,10.001
		c48.438,0,108.972-29.001,181-29.001c32.475,0,63.677,19,98.999,19"/>
</g>
</svg>
