<?xml version="1.0" encoding="utf-8"?>
<!-- Generator: Adobe Illustrator 16.0.0, SVG Export Plug-In . SVG Version: 6.00 Build 0)  -->
<!DOCTYPE svg PUBLIC "-//W3C//DTD SVG 1.1//EN" "http://www.w3.org/Graphics/SVG/1.1/DTD/svg11.dtd">
<svg version="1.1" id="Layer_1" xmlns="http://www.w3.org/2000/svg" xmlns:xlink="http://www.w3.org/1999/xlink" x="0px" y="0px"
	 width="300px" height="300px" viewBox="0 0 300 300" enable-background="new 0 0 300 300" xml:space="preserve">
<polyline fill="#7D7D7D" stroke="#7D7D7D" stroke-miterlimit="10" points="96.857,127.545 86.844,129.182 94.164,132.556 "/>
<path fill="#FEBE2A" stroke="#FFFFFF" stroke-miterlimit="10" d="M114.99,103.862c-7.197,3.433-14.362,10.853-18.616,22.593
	c-1,2.758-1.838,5.754-2.479,8.992c-1.342,6.78-1.816,14.623-1.081,23.568c2.471,30.068,20.697,59.132,72.185,56.669
	c64.059-3.064,61.32-83.251,61.32-83.251s-8.167,8.712-19.704,12.315c-16.513,5.156-39.895,10.473-47.213,5.251
	c-7.229-5.159,0-26.434-10.916-38.749C138.772,100.291,122.731,100.17,114.99,103.862z"/>
<path fill="#F79430" d="M150,150c0,0-8.5,3.074-25.652,2.5c-11.988-0.401-21.703-4.25-21.703-4.25
	c-0.062-13.144,0.979-39.583,23.712-39.583C147.959,108.667,149.414,135.989,150,150z"/>
<path fill="#B63D26" stroke="#B63D26" stroke-miterlimit="10" d="M114.891,83.648C111.855,84.253,114.005,96,114.005,96
	s2.653,5.571,4.456,5.685c2.195,0.139,6.253-6.185,6.253-6.185s4.173,6.546,6.361,6.185c2.355-0.388,4.348-8.501,4.348-8.501
	s0.231-9.092-2.174-9.536c-1.922-0.355-4.348,6.5-4.348,6.5s-3.51-5.555-5.435-5.465c-1.965,0.092-5.006,6.072-5.006,6.072
	S116.841,83.259,114.891,83.648z"/>
<path fill="#F79430" d="M213.334,154.667c0,0-6.596,47.582-55.766,47.678c-51.947,0.102-54.926-49.773-54.926-49.773
	C135.688,164.571,181.318,168.902,213.334,154.667z"/>
<path fill="#7D7D7D" stroke="#7D7D7D" stroke-miterlimit="10" d="M118.25,124.552c-0.373,1.49-2.879,2.365-4.375,2.365
	c-1.497,0-3.956-0.833-4.375-2.365c0,0,2.878,0.752,4.375,0.752C115.371,125.304,118.25,124.552,118.25,124.552z"/>
</svg>
