<?xml version="1.0" encoding="utf-8"?>
<!-- Generator: Adobe Illustrator 16.0.0, SVG Export Plug-In . SVG Version: 6.00 Build 0)  -->
<!DOCTYPE svg PUBLIC "-//W3C//DTD SVG 1.1//EN" "http://www.w3.org/Graphics/SVG/1.1/DTD/svg11.dtd">
<svg version="1.1" id="Layer_1" xmlns="http://www.w3.org/2000/svg" xmlns:xlink="http://www.w3.org/1999/xlink" x="0px" y="0px"
	 width="300px" height="300px" viewBox="0 0 300 300" enable-background="new 0 0 300 300" xml:space="preserve">
<polyline fill="#7D7D7D" stroke="#7D7D7D" stroke-miterlimit="10" points="91.857,127.545 81.844,125.808 89.164,132.556 "/>
<polyline fill="#7D7D7D" stroke="#7D7D7D" stroke-miterlimit="10" points="89.268,133.209 79.252,138.986 87.831,139.208 "/>
<path fill="#FEBE2A" stroke="#FFFFFF" stroke-miterlimit="10" d="M109.99,103.862c-7.197,3.433-14.362,10.853-18.616,22.593
	c-1,2.758-1.838,5.754-2.479,8.992c-1.342,6.78-1.816,14.623-1.081,23.568c2.471,30.068,20.697,59.132,72.185,56.669
	c64.059-3.064,61.32-83.251,61.32-83.251s-8.167,8.712-19.704,12.315c-16.513,5.156-39.895,10.473-47.213,5.251
	c-7.229-5.159,0-26.434-10.916-38.749C133.772,100.291,117.731,100.17,109.99,103.862z"/>
<path fill="#F79430" d="M145,150c0,0-8.5,3.074-25.652,2.5c-11.988-0.401-21.703-4.25-21.703-4.25
	c-0.062-13.144,0.979-39.583,23.712-39.583C142.959,108.667,144.414,135.989,145,150z"/>
<ellipse fill="#F9F5F4" cx="111.974" cy="124.552" rx="5.365" ry="4.876"/>
<path fill="#B63D26" stroke="#B63D26" stroke-miterlimit="10" d="M109.891,83.648C106.855,84.253,109.005,96,109.005,96
	s2.653,5.571,4.456,5.685c2.195,0.139,6.253-6.185,6.253-6.185s4.173,6.546,6.361,6.185c2.355-0.388,4.348-8.501,4.348-8.501
	s0.231-9.092-2.174-9.536c-1.922-0.355-4.348,6.5-4.348,6.5s-3.51-5.555-5.435-5.465c-1.965,0.092-5.006,6.072-5.006,6.072
	S111.841,83.259,109.891,83.648z"/>
<ellipse fill="#7D7D7D" stroke="#7D7D7D" stroke-miterlimit="10" cx="109.296" cy="124.552" rx="2.709" ry="2.463"/>
<path fill="#91CC84" d="M74.092,133.123c0,0,2.601-4.485,0-4.868s-2.972-2.589-4.458,0s3.901,4.359,0,4.868
	c-3.9,0.508-4.086-1.164-3.9,0.508c0.186,1.671,4.081,5.201,4.733,4.458c0.653-0.743,2.882-2.212,2.882,0.102
	s1.899-2.145,1.899-2.145l2.002-0.959v-4.394"/>
<path fill="#F79430" d="M209.75,154.667c0,0-6.596,47.582-55.766,47.678c-51.948,0.102-54.927-49.773-54.927-49.773
	C132.103,164.571,177.734,168.902,209.75,154.667z"/>
<polygon fill="#412612" points="130.002,212.88 121.539,230.417 114.674,231.053 120.539,233.167 113.854,237.299 121.539,234.667 
	120.529,238.367 125.539,231.917 "/>
<polygon fill="#412612" points="148.031,215.154 150.222,232.126 144.769,236.343 150.853,234.983 147.425,242.056 152.501,235.713 
	153.633,239.378 154.403,231.247 "/>
</svg>
